<?xml version="1.0" standalone="no"?>
<!DOCTYPE svg PUBLIC "-//W3C//DTD SVG 20010904//EN"
 "http://www.w3.org/TR/2001/REC-SVG-20010904/DTD/svg10.dtd">
<svg version="1.0" xmlns="http://www.w3.org/2000/svg"
 width="96.000000pt" height="45.000000pt" viewBox="0 0 96.000000 45.000000"
 preserveAspectRatio="xMidYMid meet">

<g transform="translate(0.000000,45.000000) scale(0.100000,-0.100000)"
fill="#000000" stroke="none">
<path d="M86 325 c-4 -12 2 -15 28 -15 72 0 76 -12 52 -147 l-13 -71 28 -4
c16 -3 33 -2 39 2 6 3 18 51 28 106 l18 99 57 9 c38 5 57 13 57 22 0 21 -285
20 -294 -1z"/>
<path d="M416 318 c-12 -55 -36 -196 -36 -212 0 -13 7 -17 32 -14 l32 3 17 99
c10 54 22 102 28 106 6 3 27 4 46 2 41 -5 41 -4 20 -122 -8 -47 -15 -86 -15
-87 0 -2 17 -3 38 -3 l39 0 17 102 c9 56 22 106 29 110 18 12 41 10 62 -6 18
-13 19 -18 4 -110 l-15 -96 37 0 c41 0 39 -5 60 117 12 69 11 72 -12 102 l-24
30 -177 0 c-176 1 -178 1 -182 -21z"/>
</g>
</svg>
